<svg width="800" height="600" viewBox="0 0 800 600" xmlns="http://www.w3.org/2000/svg">
  <defs>
    <radialGradient id="bgGradient" cx="50%" cy="50%" r="70%" fx="50%" fy="50%">
      <stop offset="0%" style="stop-color:#0a1533;stop-opacity:1" />
      <stop offset="100%" style="stop-color:#020514;stop-opacity:1" />
    </radialGradient>

    <filter id="blueGlow" x="-50%" y="-50%" width="200%" height="200%">
      <feGaussianBlur in="SourceGraphic" stdDeviation="8" result="blur" />
      <feColorMatrix in="blur" type="matrix" values="0 0 0 0 0  0 0.5 0 0 0  0 0 1 0 0  0 0 0 1 0" result="coloredBlur"/>
      <feMerge>
        <feMergeNode in="coloredBlur" />
        <feMergeNode in="SourceGraphic" />
      </feMerge>
    </filter>

    <pattern id="techPattern" x="0" y="0" width="50" height="50" patternUnits="userSpaceOnUse">
      <circle cx="25" cy="25" r="1" fill="#1a3a6e" opacity="0.5"/>
    </pattern>
  </defs>

  <rect width="100%" height="100%" fill="url(#bgGradient)" />
  <rect width="100%" height="100%" fill="url(#techPattern)" opacity="0.4"/>
  
  <g stroke="#1c4b8f" stroke-width="1.5" opacity="0.3" fill="none">
    <path d="M 50,100 L 200,100 L 250,50" />
    <path d="M 600,500 L 700,500 L 750,550" />
    <line x1="100" y1="300" x2="700" y2="300" stroke-dasharray="5,10" opacity="0.2"/>
    <circle cx="200" cy="100" r="3" fill="#1c4b8f"/>
    <circle cx="700" cy="500" r="3" fill="#1c4b8f"/>
  </g>

  <g transform="translate(400, 300)">
    
    <animateTransform 
        attributeName="transform" 
        type="scale" 
        values="1; 1.08; 0.98; 1.02; 1" 
        keyTimes="0; 0.2; 0.5; 0.7; 1"
        dur="1.5s" 
        repeatCount="indefinite" 
        additive="sum" 
    />
    
    <g filter="url(#blueGlow)" stroke="#3a86ff" stroke-width="2" fill="none" opacity="0.9">
      
      <path d="M -120,-140 
               C -120,-140 -80,-180 0,-180 
               C 80,-180 120,-140 120,-140 
               V 20 
               C 120,120 0,200 0,200 
               C 0,200 -120,120 -120,20 
               Z" fill="rgba(10, 50, 100, 0.2)" />
      
      <g stroke-width="1" opacity="0.7">
        <line x1="0" y1="-180" x2="0" y2="200" />
        <line x1="-120" y1="-60" x2="120" y2="-60" />
        <line x1="-110" y1="40" x2="110" y2="40" />
        <line x1="0" y1="-180" x2="-120" y2="-60" />
        <line x1="0" y1="-180" x2="120" y2="-60" />
        <line x1="-120" y1="-60" x2="0" y2="40" />
        <line x1="120" y1="-60" x2="0" y2="40" />
        <line x1="-110" y1="40" x2="0" y2="200" />
        <line x1="110" y1="40" x2="0" y2="200" />
      </g>
      
      <g fill="#80b3ff" stroke="none">
        <circle cx="0" cy="-180" r="5" />
        <circle cx="0" cy="200" r="5" />
        <circle cx="-120" cy="-60" r="4" />
        <circle cx="120" cy="-60" r="4" />
        <circle cx="0" cy="40" r="4" />
      </g>
    </g>
  </g>

</svg>