<svg width="256" height="256" viewBox="0 0 256 256" fill="none" xmlns="http://www.w3.org/2000/svg">
  <defs>
    <linearGradient id="gradient" x1="0%" y1="0%" x2="100%" y2="100%">
      <stop offset="0%" style="stop-color:#E0F2FE;stop-opacity:1" />
      <stop offset="100%" style="stop-color:#BAE6FD;stop-opacity:1" />
    </linearGradient>
  </defs>
  
  <!-- Background Circle -->
  <circle cx="128" cy="128" r="120" fill="url(#gradient)" stroke="#0EA5E9" stroke-width="12"/>
  
  <!-- Shield Shape (Security) -->
  <path d="M128 40L88 56V104C88 140 112 168 128 176C144 168 168 140 168 104V56L128 40Z" 
        fill="white" 
        stroke="#0EA5E9" 
        stroke-width="10"/>
  
  <!-- Data Points and Connections (Analytics) -->
  <circle cx="108" cy="88" r="10" fill="#0EA5E9"/>
  <circle cx="148" cy="80" r="10" fill="#0EA5E9"/>
  <circle cx="128" cy="120" r="10" fill="#0EA5E9"/>
  <circle cx="100" cy="136" r="10" fill="#0EA5E9"/>
  <circle cx="156" cy="128" r="10" fill="#0EA5E9"/>
  
  <!-- Connection Lines -->
  <line x1="108" y1="88" x2="128" y2="120" stroke="#0EA5E9" stroke-width="6" opacity="0.6"/>
  <line x1="148" y1="80" x2="128" y2="120" stroke="#0EA5E9" stroke-width="6" opacity="0.6"/>
  <line x1="128" y1="120" x2="100" y2="136" stroke="#0EA5E9" stroke-width="6" opacity="0.6"/>
  <line x1="128" y1="120" x2="156" y2="128" stroke="#0EA5E9" stroke-width="6" opacity="0.6"/>
  
  <!-- AI/Tech Elements (Chart Bars) -->
  <rect x="72" y="192" width="12" height="40" rx="4" fill="#0EA5E9" opacity="0.4"/>
  <rect x="96" y="176" width="12" height="56" rx="4" fill="#0EA5E9" opacity="0.6"/>
  <rect x="120" y="184" width="12" height="48" rx="4" fill="#0EA5E9" opacity="0.8"/>
  <rect x="144" y="168" width="12" height="64" rx="4" fill="#0EA5E9"/>
  <rect x="168" y="192" width="12" height="40" rx="4" fill="#0EA5E9" opacity="0.4"/>
</svg>
