<svg width="32" height="32" viewBox="0 0 32 32" fill="none" xmlns="http://www.w3.org/2000/svg">
  <defs>
    <linearGradient id="gradient" x1="0%" y1="0%" x2="100%" y2="100%">
      <stop offset="0%" style="stop-color:#E0F2FE;stop-opacity:1" />
      <stop offset="100%" style="stop-color:#BAE6FD;stop-opacity:1" />
    </linearGradient>
  </defs>
  
  <!-- Background Circle (matching original logo) -->
  <circle cx="16" cy="16" r="15" fill="url(#gradient)" stroke="#0EA5E9" stroke-width="1.5"/>
  
  <!-- Shield Shape (Security) - scaled to 32x32 -->
  <path d="M16 5L11 7V13C11 17.5 14 21 16 22C18 21 21 17.5 21 13V7L16 5Z" 
        fill="white" 
        stroke="#0EA5E9" 
        stroke-width="1.2"/>
  
  <!-- Data Points (Analytics) - simplified for small size -->
  <circle cx="13.5" cy="11" r="1" fill="#0EA5E9"/>
  <circle cx="18.5" cy="10" r="1" fill="#0EA5E9"/>
  <circle cx="16" cy="15" r="1" fill="#0EA5E9"/>
  <circle cx="12.5" cy="17" r="1" fill="#0EA5E9"/>
  <circle cx="19.5" cy="16" r="1" fill="#0EA5E9"/>
  
  <!-- Connection Lines -->
  <line x1="13.5" y1="11" x2="16" y2="15" stroke="#0EA5E9" stroke-width="0.8" opacity="0.6"/>
  <line x1="18.5" y1="10" x2="16" y2="15" stroke="#0EA5E9" stroke-width="0.8" opacity="0.6"/>
  <line x1="16" y1="15" x2="12.5" y2="17" stroke="#0EA5E9" stroke-width="0.8" opacity="0.6"/>
  <line x1="16" y1="15" x2="19.5" y2="16" stroke="#0EA5E9" stroke-width="0.8" opacity="0.6"/>
  
  <!-- AI/Tech Elements (Chart Bars) - simplified -->
  <rect x="9" y="24" width="1.5" height="5" rx="0.5" fill="#0EA5E9" opacity="0.4"/>
  <rect x="12" y="22" width="1.5" height="7" rx="0.5" fill="#0EA5E9" opacity="0.6"/>
  <rect x="15" y="23" width="1.5" height="6" rx="0.5" fill="#0EA5E9" opacity="0.8"/>
  <rect x="18" y="21" width="1.5" height="8" rx="0.5" fill="#0EA5E9"/>
  <rect x="21" y="24" width="1.5" height="5" rx="0.5" fill="#0EA5E9" opacity="0.4"/>
</svg>
